<svg xmlns="http://www.w3.org/2000/svg" width="32" height="32" viewBox="0 0 32 32"><title>gulp</title><path fill="#fff" d="M20.216 25.92l.848-1.448s-1.928.79-5.156.79c-3.228 0-5.128-.76-5.128-.76l.95 1.58.336 4.98c0 .54 1.756.96 3.92.96 2.168 0 3.924-.42 3.924-.96l.306-5.12zm.82-9.41c-1.026.06-1.54 1.206-2.056 2.41-.19.44-.84 2.32-1.266 2.088s.552-1.776.826-2.694c-.316.232-1.476 1.134-1.774.288-.48.42-1.508.64-1.392-.44-.256.46-.83 1.1-1.52.82-.9-.34.526-3.22.88-3.08.356.16-.07.8-.18 1.06-.248.56-.532 1.28-.34 1.42.32.26 1.206-.94 1.226-.96.166-.22.64-1.64 1.02-1.48.38.18-.95 2.06-.454 2.44.1.08.51-.04.76-.32.16-.16.104-.56.64-1.84.54-1.28 1.02-2.88 1.388-2.76s.064.94-.068 1.26c-.62 1.44-1.694 3.8-1.188 3.62.5-.18.76-.18 1.26-.76s.46-1.54.8-1.52c.32.02.28.34.2.56.32-.36 1.54-1.16 1.82-.38.34.92-1.74 2.26-1.22 2.18.5-.06 1.32-.58 1.68-1.06l.96-8.68s-.98.8-7.16.8-7.06-.78-7.06-.78l.82 7.92c.44-1.24 1.48-3.76 3.1-3.66.74.04 1.74 1.48.88 1.52-.36.02-.4-.72-.82-.82-.32-.06-.74.18-1.02.46-.54.54-1.74 2.68-1.58 3.74.2 1.36 1.88-.46 2.16-1 .2-.38.34-1.52.76-1.4.44.12-.04 1.3-.36 2.32-.36 1.16-.54 2.38-.98 2.24s.28-1.64.24-1.9c-.42.4-1.18 1.36-2.18.88l.5 4.94s1.36 1.06 5.44 1.06 5.5-1.06 5.5-1.06l.64-5.72c-.52.52-2.16 1.42-2.26.4-.08-.82 1.78-2 1.3-2.02zM23.162.838v-.04c.08-.12-.06-.38-.32-.58-.258-.22-.54-.32-.632-.2l-3.774 4-.748 3.04c-.562-.02-1.124-.02-1.688-.02-3.976 0-7.2.46-7.2 1.02s3.224 1.02 7.2 1.02 7.2-.452 7.2-1.012c0-.412-1.748-.766-4.26-.926l.648-2.54L23.14.86zM18.02 8.6s-.7 0-.816-.108a.178.178 0 0 1-.048-.12c0-.076.052-.12.12-.146l.06.1c-.028.008-.04.02-.044.03 0 .056.42.094.74.09s.71-.032.712-.086c0-.016-.03-.032-.08-.044l.06-.096c.084.026.156.076.156.16 0 .148-.188.172-.308.188-.144.02-.55.032-.55.032z"/></svg>