<svg xmlns="http://www.w3.org/2000/svg" width="24" height="24" viewBox="0 0 32 32"><title>js</title><path fill="#fff" d="M0 0h32v32H0V0zm29.38 24.368c-.234-1.46-1.186-2.686-4.006-3.83-.98-.46-2.07-.78-2.396-1.52-.12-.44-.14-.68-.06-.94.2-.86 1.22-1.12 2.02-.88.52.16 1 .56 1.3 1.2 1.38-.9 1.38-.9 2.34-1.5-.36-.56-.54-.8-.78-1.04-.84-.94-1.96-1.42-3.78-1.38l-.94.12c-.9.22-1.76.7-2.28 1.34-1.52 1.72-1.08 4.72.76 5.96 1.82 1.36 4.48 1.66 4.82 2.94.32 1.56-1.16 2.06-2.62 1.88-1.08-.24-1.68-.78-2.34-1.78l-2.44 1.4c.28.64.6.92 1.08 1.48 2.32 2.34 8.12 2.22 9.16-1.34.04-.12.32-.94.1-2.2zm-11.98-9.66h-2.996c0 2.584-.012 5.152-.012 7.74 0 1.644.084 3.152-.184 3.614-.44.92-1.572.8-2.088.64-.528-.26-.796-.62-1.106-1.14-.084-.14-.148-.26-.17-.26l-2.434 1.5c.406.84 1 1.56 1.766 2.02 1.14.68 2.672.9 4.276.54 1.044-.3 1.944-.92 2.414-1.88.68-1.24.536-2.76.53-4.46.016-2.74 0-5.48 0-8.24z"/></svg>