<svg xmlns="http://www.w3.org/2000/svg" width="760" height="760" viewBox="0 0 760 760"><defs><style>.cls-1{fill:#1f1f21}.cls-2{fill:#fff;fill-rule:evenodd}</style></defs><circle class="cls-1" cx="380" cy="380" r="380"/><path id="G" class="cls-2" d="M555.691 132.978q-25.553-22.322-59.187-22.322h-72.125q-97.682 0-182.092 42.057Q152.7 197.685 105.153 277.59q-33.96 56.943-33.96 111.936 0 99 96.382 143.641 70.832 32.68 183.385 32.675l-29.76 80.879q14.554.645 25.875.647 96.7 0 122.256-72.144 53.689-152.694 80.215-229.372H428.907L368.749 514.08q-69.543 0-112.231-29.764-49.485-34.287-49.485-100.616 0-78.933 59.835-146.876Q328.641 166.3 406.59 166.3h7.115a89.514 89.514 0 0 0-3.234 22.647q0 33.649 26.521 55.968 25.546 21.351 59.512 21.352 34.278 0 59.511-21.352 26.842-22.323 26.845-55.968 0-33-27.169-55.969z"/><path id=":" class="cls-2" d="M666.866 351.675q-16.5-15.2-39.782-15.2t-39.782 15.2q-16.5 15.21-16.5 36.557t16.338 36.558q16.327 15.21 39.3 15.2 23.606 0 40.267-15.2t16.656-36.558q-.003-21.351-16.497-36.557zm-30.4 135.877q-16.5-15.2-39.782-15.206-23.613 0-39.944 15.206t-16.34 36.557q0 21.353 16.333 36.557t39.944 15.2q23.287 0 39.782-15.2t16.5-36.557q-.001-21.352-16.496-36.557z"/></svg>